# xmcd
#
# Track frame offsets: 
#        150
#        13250
#        22878
#        35852
#        48967
#        62120
#        79375
#        92249
#        100619
#        111440
#        121617
#        133810
#        145340
#        155101
#        162958
#        177094
#        191093
#        203197
#        213448
#        225574
#        235165
#
# Disc length: 3267 seconds
#
# Revision: 0
# Processed by: cddbd v1.5.2PL0 Copyright (c) Steve Scherf et al.
# Submitted via: ExactAudioCopy v0.99pb5
#
DISCID=290cc115
DTITLE=Freddy Fender - 2CD Autograph Collection - CD2
DYEAR=2006
DGENRE=Country
TTITLE0=Silver Wings
TTITLE1=Your Cheating Heart
TTITLE2=Mean Woman Blues (Live)
TTITLE3=Going Out With The Tide
TTITLE4=Just Because
TTITLE5=Whiskey River (Live)
TTITLE6=Donna
TTITLE7=Just A Little Bit
TTITLE8=Black Shirt (Live)
TTITLE9=Ohh Poo Pah Do
TTITLE10=Lovin' Cajun Style (Live)
TTITLE11=Coming Home Soon
TTITLE12=But I Do
TTITLE13=Breaking Up Is Hard To Do
TTITLE14=Mexican Rose (Live)
TTITLE15=Money
TTITLE16=Talk To Me
TTITLE17=Crazy Baby
TTITLE18=You'll Lose A Good Thing (Live)
TTITLE19=Running Back
TTITLE20=Wasted Days And Wasted Nights (Live)
EXTD=
EXTT0=
EXTT1=
EXTT2=
EXTT3=
EXTT4=
EXTT5=
EXTT6=
EXTT7=
EXTT8=
EXTT9=
EXTT10=
EXTT11=
EXTT12=
EXTT13=
EXTT14=
EXTT15=
EXTT16=
EXTT17=
EXTT18=
EXTT19=
EXTT20=
PLAYORDER=
